<svg xmlns="http://www.w3.org/2000/svg" xmlns:xlink="http://www.w3.org/1999/xlink" xmlns:fi="http://pattern.flaticon.com/" x="0" y="0" width="700" height="350" viewBox="0 0 700 350"><rect x="0px" y="0px" width="100%" height="100%" opacity="1" fill="#ffffff"/><defs><path d="M165,0C74.019,0,0,74.019,0,165s74.019,165,165,165c90.982,0,165-74.019,165-165S255.982,0,165,0z" transform="matrix(0.03030303120613098 0 0 0.03030303120613098 345 82.5)" id="L1_19" fill="#ac56cc"/><path d="M165,0C74.019,0,0,74.019,0,165s74.019,165,165,165c90.982,0,165-74.019,165-165S255.982,0,165,0z" transform="matrix(0.03030303120613098 0 0 0.03030303120613098 82.5 257.5)" id="L1_20" fill="#55c428"/><g transform="matrix(0.6423753499984741 0 0 0.6423753499984741 305 305)" id="L1_21"><path d="M71.887,73.441l-3.109-3.107l8.312,18.534l17.148-17.147L63.134,57.752l2.592,5.781l8.034,8.033    c0.521,0.52,0.521,1.357,0,1.875C73.244,73.958,72.402,73.958,71.887,73.441z"/><path d="M74.7,34.993 76.123,36.419 97.683,46.721 80.325,29.366z"/><path d="M96.27,34.055L85.956,23.741l-3.752,3.752l17.818,17.817c0.519,0.519,0.519,1.357,0,1.876    c-0.19,0.19-0.424,0.285-0.668,0.336l12.914,6.173l20.574-20.575c2.07-2.07,2.07-5.43,0-7.503L112.21,4.986    c-2.069-2.071-5.43-2.071-7.503,0l-9.379,9.379l17.817,17.818c0.52,0.519,0.52,1.356,0,1.875s-1.356,0.519-1.875,0L93.453,16.241    l-5.627,5.627L98.14,32.182c0.519,0.519,0.519,1.356,0,1.875C97.626,34.572,96.786,34.572,96.27,34.055z"/><path d="M39.062,70.629l-3.751,3.752l10.314,10.313c0.519,0.519,0.519,1.356,0,1.875c-0.519,0.521-1.357,0.521-1.876,0    L33.435,76.256l-5.627,5.627L45.625,99.7c0.519,0.521,0.519,1.356,0,1.876s-1.357,0.52-1.876,0L25.932,83.76l-3.751,3.752    l10.314,10.313c0.519,0.519,0.519,1.356,0,1.875c-0.519,0.521-1.357,0.521-1.876,0L20.305,89.387l-5.627,5.627l17.818,17.817    c0.519,0.519,0.519,1.356,0,1.875c-0.519,0.521-1.357,0.521-1.876,0L12.806,96.887L1.554,108.139    c-2.071,2.071-2.071,5.432,0,7.504l20.631,20.631c2.07,2.072,5.43,2.072,7.503,0l29.226-29.23L43.549,75.116L39.062,70.629z"/><path d="M130.233,75.535l-0.76-2.277c-1.548-6.192-5.708-8.667-5.708-8.667l-15.152-7.243L85.402,46.254l-6.119-2.926    l-8.741-4.178l-8.724-4.17c0.848-1.659-0.602-3.379-0.602-3.379L39.102,9.485l-7.077,7.077c0,0-8.958-8.958-12.273-12.273    c-1.598-1.598-2.996-2.012-4.012-2.012c-1.094,0-1.749,0.478-1.749,0.478l-2.312,2.307L9.91,6.833L8.139,8.602    c0,0-2.321,2.987,0.997,6.302c3.318,3.318,12.273,12.273,12.273,12.273l-7.077,7.079l22.115,22.115c0,0,1.077,0.638,2.307,0.638    c0.441,0,0.904-0.083,1.342-0.307l4.19,8.707l6.207,12.901l3.479,7.229l8.592,17.854l7.277,15.117c0,0,2.542,4.092,8.736,5.641    l2.675,0.882c0,0,2.471,2.624,5.519,5.86c1.713,1.818,2.894,2.759,3.361,2.759c0.365,0,0.295-0.573-0.3-1.747l-2.456-4.85    l1.76,0.578L73.404,92.557L59.096,60.653l-3.05-6.801l-0.063-0.142l-0.295-0.658l1.99-1.99l0.76-0.76l0.658,0.294l2.173,0.977    l6.809,3.057l29.844,13.403l35.065,15.749l-0.862-2.582l5.829,2.812c0,0,3.152-1.492,1.825-3.705L130.233,75.535z"/></g><g transform="matrix(-0.428250253200531 0 0 0.428250253200531 117.45503544807434 57.4999997647551)" id="L1_22"><path d="M71.887,73.441l-3.109-3.107l8.312,18.534l17.148-17.147L63.134,57.752l2.592,5.781l8.034,8.033    c0.521,0.52,0.521,1.357,0,1.875C73.244,73.958,72.402,73.958,71.887,73.441z"/><path d="M74.7,34.993 76.123,36.419 97.683,46.721 80.325,29.366z"/><path d="M96.27,34.055L85.956,23.741l-3.752,3.752l17.818,17.817c0.519,0.519,0.519,1.357,0,1.876    c-0.19,0.19-0.424,0.285-0.668,0.336l12.914,6.173l20.574-20.575c2.07-2.07,2.07-5.43,0-7.503L112.21,4.986    c-2.069-2.071-5.43-2.071-7.503,0l-9.379,9.379l17.817,17.818c0.52,0.519,0.52,1.356,0,1.875s-1.356,0.519-1.875,0L93.453,16.241    l-5.627,5.627L98.14,32.182c0.519,0.519,0.519,1.356,0,1.875C97.626,34.572,96.786,34.572,96.27,34.055z"/><path d="M39.062,70.629l-3.751,3.752l10.314,10.313c0.519,0.519,0.519,1.356,0,1.875c-0.519,0.521-1.357,0.521-1.876,0    L33.435,76.256l-5.627,5.627L45.625,99.7c0.519,0.521,0.519,1.356,0,1.876s-1.357,0.52-1.876,0L25.932,83.76l-3.751,3.752    l10.314,10.313c0.519,0.519,0.519,1.356,0,1.875c-0.519,0.521-1.357,0.521-1.876,0L20.305,89.387l-5.627,5.627l17.818,17.817    c0.519,0.519,0.519,1.356,0,1.875c-0.519,0.521-1.357,0.521-1.876,0L12.806,96.887L1.554,108.139    c-2.071,2.071-2.071,5.432,0,7.504l20.631,20.631c2.07,2.072,5.43,2.072,7.503,0l29.226-29.23L43.549,75.116L39.062,70.629z"/><path d="M130.233,75.535l-0.76-2.277c-1.548-6.192-5.708-8.667-5.708-8.667l-15.152-7.243L85.402,46.254l-6.119-2.926    l-8.741-4.178l-8.724-4.17c0.848-1.659-0.602-3.379-0.602-3.379L39.102,9.485l-7.077,7.077c0,0-8.958-8.958-12.273-12.273    c-1.598-1.598-2.996-2.012-4.012-2.012c-1.094,0-1.749,0.478-1.749,0.478l-2.312,2.307L9.91,6.833L8.139,8.602    c0,0-2.321,2.987,0.997,6.302c3.318,3.318,12.273,12.273,12.273,12.273l-7.077,7.079l22.115,22.115c0,0,1.077,0.638,2.307,0.638    c0.441,0,0.904-0.083,1.342-0.307l4.19,8.707l6.207,12.901l3.479,7.229l8.592,17.854l7.277,15.117c0,0,2.542,4.092,8.736,5.641    l2.675,0.882c0,0,2.471,2.624,5.519,5.86c1.713,1.818,2.894,2.759,3.361,2.759c0.365,0,0.295-0.573-0.3-1.747l-2.456-4.85    l1.76,0.578L73.404,92.557L59.096,60.653l-3.05-6.801l-0.063-0.142l-0.295-0.658l1.99-1.99l0.76-0.76l0.658,0.294l2.173,0.977    l6.809,3.057l29.844,13.403l35.065,15.749l-0.862-2.582l5.829,2.812c0,0,3.152-1.492,1.825-3.705L130.233,75.535z"/></g><g transform="matrix(0.2753663957118988 0 0 0.2753663957118988 242.5 67.5)" id="L1_23"><path d="M25.68,14.452H3.95c-3.949,0-3.949,3.187-3.949,5.367v9.25h18.765c0.545,0,0.986,0.672,0.986,1.218    c0,0.546-0.443,1.218-0.986,1.218H0v4.872h10.866c0.545,0,0.986,0.672,0.986,1.218c0,0.545-0.443,1.218-0.986,1.218H0v4.872    h18.766c0.545,0,0.784,0.585,0.784,1.13c0,0.546-0.239,1.306-0.784,1.306H0v4.872h10.866c0.545,0,0.986,0.672,0.986,1.218    s-0.443,1.218-0.986,1.218H0v4.872h18.766c0.545,0,0.986,0.672,0.986,1.218c0,0.545-0.443,1.218-0.986,1.218H0v4.873h10.866    c0.545,0,0.986,0.672,0.986,1.218c0,0.546-0.443,1.218-0.986,1.218H0v4.872h18.766c0.545,0,0.986,0.672,0.986,1.219    c0,0.545-0.443,1.218-0.986,1.218H0v4.873h10.866c0.545,0,0.76,0.674,0.76,1.221c0,0.545-0.214,1.215-0.76,1.215H0v4.873h18.766    c0.545,0,0.986,0.672,0.986,1.217c0,0.547-0.443,1.219-0.986,1.219H0v4.872h10.866c0.545,0,0.986,0.673,0.986,1.219    s-0.443,1.219-0.986,1.219H0v4.872h18.766c0.545,0,0.986,0.672,0.986,1.218s-0.443,1.219-0.986,1.219H0v4.871h10.866    c0.545,0,0.986,0.673,0.986,1.219c0,0.545-0.443,1.219-0.986,1.219H0v4.872h18.766c0.545,0,0.986,0.672,0.986,1.219    c0,0.545-0.443,1.217-0.986,1.217H0v9.26c0,2.185,1.769,2.922,3.952,2.922h21.73c2.18,0,5.988-0.737,5.988-2.922V19.819    C31.67,17.639,31.67,14.452,25.68,14.452z"/><path d="M134.251,117.683l-2.165,2.05c-0.771,0.771-2.021,0.589-2.794-0.182c-0.772-0.771-0.772-1.956,0-2.729l2.285-2.285    l-5.832-6.358l-5.511,5.512c-0.772,0.771-2.022,0.771-2.795,0c-0.771-0.772-0.771-2.022,0-2.794l5.633-5.634l-5.832-6.356    l-2.932,2.93c-0.771,0.772-2.021,0.772-2.793,0c-0.772-0.771-0.772-2.021,0-2.794l3.051-3.052l-5.832-6.359l-6.276,6.278    c-0.772,0.771-2.021,0.771-2.795,0c-0.771-0.772-0.771-2.022,0-2.794l6.397-6.397l-6.776-7.389l-2.754,2.753    c-0.771,0.772-2.021,0.772-2.793,0c-0.773-0.771-0.773-2.021,0-2.794l2.87-2.872l-6.776-7.39l-7.127,7.129    c-0.772,0.771-2.022,0.771-2.795,0c-0.771-0.772-0.771-2.022,0-2.795l7.25-7.25l-5.832-6.358l-2.574,2.575    c-0.772,0.772-2.022,0.772-2.795,0c-0.771-0.772-0.771-2.022,0-2.794l2.694-2.694l-5.832-6.358l-5.919,5.92    c-0.772,0.772-2.022,0.772-2.794,0s-0.772-2.022,0-2.794l6.042-6.042l-6.777-7.389l-2.395,2.395c-0.772,0.772-2.022,0.772-2.794,0    s-0.772-2.022,0-2.794l2.516-2.517l-5.832-6.358l-5.742,5.742c-0.772,0.772-2.022,0.772-2.794,0c-0.772-0.771-0.772-2.021,0-2.794    l5.367-5.861L39.226,14.798c-1.503-1.576-2.685-1.091-2.685,1.092v112.597c0,2.181,1.698,2.898,3.881,2.898h102.719    c2.183,0,2.776-0.799,1.33-2.432L134.251,117.683z M51.159,116.769V56.073l58.942,60.695H51.159z"/></g><path d="M127.881,27.403c0.952-1.659,1.49-3.462,1.49-5.439C129.371,4.626,89.588,0,66.082,0C42.575,0,2.789,4.626,2.789,21.966    c0,2.414,0.797,4.575,2.188,6.52l54.75,100.939c1.058,1.953,3.092,2.735,5.312,2.735c0.015,0,0.031,0,0.046,0    c2.202,0,4.233-0.735,5.313-2.657l57.436-101.99C127.854,27.479,127.861,27.44,127.881,27.403z M66.082,12.183    c30.921,0,47.771,6.515,50.82,9.783c-3.051,3.27-19.902,9.781-50.82,9.781c-30.92,0-47.771-6.512-50.822-9.781    C18.306,18.697,35.157,12.183,66.082,12.183z M65.179,114.335L24.495,39.141c13.079,3.555,29.483,4.787,41.587,4.787    c11.982,0,28.188-1.208,41.203-4.683L65.179,114.335z" transform="matrix(0.15133172273635864 0 0 0.15133172273635864 340 165)" id="L1_24"/><path d="M127.881,27.403c0.952-1.659,1.49-3.462,1.49-5.439C129.371,4.626,89.588,0,66.082,0C42.575,0,2.789,4.626,2.789,21.966    c0,2.414,0.797,4.575,2.188,6.52l54.75,100.939c1.058,1.953,3.092,2.735,5.312,2.735c0.015,0,0.031,0,0.046,0    c2.202,0,4.233-0.735,5.313-2.657l57.436-101.99C127.854,27.479,127.861,27.44,127.881,27.403z M66.082,12.183    c30.921,0,47.771,6.515,50.82,9.783c-3.051,3.27-19.902,9.781-50.82,9.781c-30.92,0-47.771-6.512-50.822-9.781    C18.306,18.697,35.157,12.183,66.082,12.183z M65.179,114.335L24.495,39.141c13.079,3.555,29.483,4.787,41.587,4.787    c11.982,0,28.188-1.208,41.203-4.683L65.179,114.335z" transform="matrix(-0.4539951682090759 0 0 0.4539951682090759 205.00000226180146 232.5)" id="L1_25"/><g transform="matrix(0.21380312740802765 0 0 0.21380312740802765 165 165)" id="L1_26"><path d="M25.034,67.149h13.754l-2.962,6.211H25.034c-2.572,0-4.658,2.085-4.658,4.657c0,2.573,2.085,4.658,4.658,4.658h6.349    l-2.008,4.205c-1.107,2.32-0.124,5.102,2.199,6.209c0.647,0.309,1.331,0.454,2.003,0.454c1.74,0,3.409-0.979,4.208-2.651    l3.919-8.217h26.805c2.572,0,4.657-2.085,4.657-4.658c0-2.572-2.085-4.657-4.657-4.657H46.149l2.962-6.211h19.396    c2.573,0,4.658-2.085,4.658-4.657s-2.085-4.657-4.658-4.657H53.553l2.701-5.663c1.107-2.321,0.125-5.102-2.197-6.208    c-2.316-1.11-5.102-0.125-6.209,2.197l-4.614,9.675h-18.2c-2.572,0-4.658,2.085-4.658,4.656    C20.375,65.064,22.461,67.149,25.034,67.149z"/><path d="M27.262,0.308c-2.396-0.916-5.096,0.279-6.017,2.681c-0.922,2.402,0.279,5.096,2.681,6.017L56.42,21.47L23.677,36.273    c-2.344,1.06-3.385,3.819-2.326,6.164c0.778,1.722,2.473,2.741,4.248,2.741c0.641,0,1.293-0.134,1.916-0.415l42.916-19.4    c1.713-0.774,2.791-2.501,2.736-4.38s-1.232-3.54-2.986-4.212L27.262,0.308z"/></g></defs><g fi:class="KUsePattern"><pattern id="pattern_L1_19" width="350" height="350" patternUnits="userSpaceOnUse"><use xlink:href="#L1_19" x="-350" y="-350"/><use xlink:href="#L1_19" x="0" y="-350"/><use xlink:href="#L1_19" x="350" y="-350"/><use xlink:href="#L1_19" x="-350" y="0"/><use xlink:href="#L1_19" x="0" y="0"/><use xlink:href="#L1_19" x="350" y="0"/><use xlink:href="#L1_19" x="-350" y="350"/><use xlink:href="#L1_19" x="0" y="350"/><use xlink:href="#L1_19" x="350" y="350"/></pattern><rect x="0" y="0" width="100%" height="100%" fill="url(#pattern_L1_19)"/></g><g fi:class="KUsePattern"><pattern id="pattern_L1_20" width="350" height="350" patternUnits="userSpaceOnUse"><use xlink:href="#L1_20" x="-350" y="-350"/><use xlink:href="#L1_20" x="0" y="-350"/><use xlink:href="#L1_20" x="350" y="-350"/><use xlink:href="#L1_20" x="-350" y="0"/><use xlink:href="#L1_20" x="0" y="0"/><use xlink:href="#L1_20" x="350" y="0"/><use xlink:href="#L1_20" x="-350" y="350"/><use xlink:href="#L1_20" x="0" y="350"/><use xlink:href="#L1_20" x="350" y="350"/></pattern><rect x="0" y="0" width="100%" height="100%" fill="url(#pattern_L1_20)"/></g><g fi:class="KUsePattern"><pattern id="pattern_L1_21" width="350" height="350" patternUnits="userSpaceOnUse"><use xlink:href="#L1_21" x="-350" y="-350"/><use xlink:href="#L1_21" x="0" y="-350"/><use xlink:href="#L1_21" x="350" y="-350"/><use xlink:href="#L1_21" x="-350" y="0"/><use xlink:href="#L1_21" x="0" y="0"/><use xlink:href="#L1_21" x="350" y="0"/><use xlink:href="#L1_21" x="-350" y="350"/><use xlink:href="#L1_21" x="0" y="350"/><use xlink:href="#L1_21" x="350" y="350"/></pattern><rect x="0" y="0" width="100%" height="100%" fill="url(#pattern_L1_21)"/></g><g fi:class="KUsePattern"><pattern id="pattern_L1_22" width="350" height="350" patternUnits="userSpaceOnUse"><use xlink:href="#L1_22" x="-350" y="-350"/><use xlink:href="#L1_22" x="0" y="-350"/><use xlink:href="#L1_22" x="350" y="-350"/><use xlink:href="#L1_22" x="-350" y="0"/><use xlink:href="#L1_22" x="0" y="0"/><use xlink:href="#L1_22" x="350" y="0"/><use xlink:href="#L1_22" x="-350" y="350"/><use xlink:href="#L1_22" x="0" y="350"/><use xlink:href="#L1_22" x="350" y="350"/></pattern><rect x="0" y="0" width="100%" height="100%" fill="url(#pattern_L1_22)"/></g><g fi:class="KUsePattern"><pattern id="pattern_L1_23" width="350" height="350" patternUnits="userSpaceOnUse"><use xlink:href="#L1_23" x="-350" y="-350"/><use xlink:href="#L1_23" x="0" y="-350"/><use xlink:href="#L1_23" x="350" y="-350"/><use xlink:href="#L1_23" x="-350" y="0"/><use xlink:href="#L1_23" x="0" y="0"/><use xlink:href="#L1_23" x="350" y="0"/><use xlink:href="#L1_23" x="-350" y="350"/><use xlink:href="#L1_23" x="0" y="350"/><use xlink:href="#L1_23" x="350" y="350"/></pattern><rect x="0" y="0" width="100%" height="100%" fill="url(#pattern_L1_23)"/></g><g fi:class="KUsePattern"><pattern id="pattern_L1_24" width="350" height="350" patternUnits="userSpaceOnUse"><use xlink:href="#L1_24" x="-350" y="-350"/><use xlink:href="#L1_24" x="0" y="-350"/><use xlink:href="#L1_24" x="350" y="-350"/><use xlink:href="#L1_24" x="-350" y="0"/><use xlink:href="#L1_24" x="0" y="0"/><use xlink:href="#L1_24" x="350" y="0"/><use xlink:href="#L1_24" x="-350" y="350"/><use xlink:href="#L1_24" x="0" y="350"/><use xlink:href="#L1_24" x="350" y="350"/></pattern><rect x="0" y="0" width="100%" height="100%" fill="url(#pattern_L1_24)"/></g><g fi:class="KUsePattern"><pattern id="pattern_L1_25" width="350" height="350" patternUnits="userSpaceOnUse"><use xlink:href="#L1_25" x="-350" y="-350"/><use xlink:href="#L1_25" x="0" y="-350"/><use xlink:href="#L1_25" x="350" y="-350"/><use xlink:href="#L1_25" x="-350" y="0"/><use xlink:href="#L1_25" x="0" y="0"/><use xlink:href="#L1_25" x="350" y="0"/><use xlink:href="#L1_25" x="-350" y="350"/><use xlink:href="#L1_25" x="0" y="350"/><use xlink:href="#L1_25" x="350" y="350"/></pattern><rect x="0" y="0" width="100%" height="100%" fill="url(#pattern_L1_25)"/></g><g fi:class="KUsePattern"><pattern id="pattern_L1_26" width="350" height="350" patternUnits="userSpaceOnUse"><use xlink:href="#L1_26" x="-350" y="-350"/><use xlink:href="#L1_26" x="0" y="-350"/><use xlink:href="#L1_26" x="350" y="-350"/><use xlink:href="#L1_26" x="-350" y="0"/><use xlink:href="#L1_26" x="0" y="0"/><use xlink:href="#L1_26" x="350" y="0"/><use xlink:href="#L1_26" x="-350" y="350"/><use xlink:href="#L1_26" x="0" y="350"/><use xlink:href="#L1_26" x="350" y="350"/></pattern><rect x="0" y="0" width="100%" height="100%" fill="url(#pattern_L1_26)"/></g></svg>